<?xml version="1.0" encoding="utf-8"?>
<!-- Generator: Adobe Illustrator 16.0.0, SVG Export Plug-In . SVG Version: 6.00 Build 0)  -->
<!DOCTYPE svg PUBLIC "-//W3C//DTD SVG 1.1//EN" "http://www.w3.org/Graphics/SVG/1.1/DTD/svg11.dtd">
<svg version="1.1" id="Layer_1" xmlns="http://www.w3.org/2000/svg" xmlns:xlink="http://www.w3.org/1999/xlink" x="0px" y="0px"
	 width="205.167px" height="37.473px" viewBox="0 0 205.167 37.473" enable-background="new 0 0 205.167 37.473"
	 xml:space="preserve">
<g id="Layer_4" display="none">
	<path display="inline" fill="#FFFFFF" d="M170.148,17.94c-3.716-0.685-5.986-1.312-7.348-2.673c-1.36-1.358-1.988-3.63-2.674-7.348
		c-0.059-0.309-0.32-0.528-0.635-0.528c-0.313,0-0.58,0.227-0.637,0.528c-0.686,3.718-1.313,5.985-2.673,7.348
		c-1.361,1.36-3.634,1.988-7.349,2.673c-0.307,0.061-0.527,0.322-0.527,0.639c0,0.312,0.224,0.578,0.527,0.635
		c3.715,0.685,5.986,1.312,7.349,2.673c1.358,1.36,1.987,3.632,2.673,7.348c0.057,0.309,0.32,0.528,0.637,0.528
		c0.311,0,0.576-0.224,0.635-0.528c0.686-3.716,1.312-5.983,2.674-7.348c1.359-1.357,3.632-1.988,7.348-2.673
		c0.307-0.057,0.527-0.321,0.527-0.635C170.675,18.263,170.455,17.998,170.148,17.94z"/>
</g>
<g id="Layer_2" display="none">
	<path display="inline" fill="none" stroke="#000000" stroke-width="8" stroke-linecap="round" stroke-miterlimit="10" d="
		M-13.007-45.615C-6.302-55.44-2.382-67.318-2.382-80.111c0-33.843-27.435-61.274-61.277-61.274
		c-33.842,0-61.276,27.436-61.276,61.274c0,33.843,27.435,61.276,61.276,61.276c14.613,0,28.031-5.115,38.562-13.652"/>
</g>
<rect x="-5" y="-2" fill="none" width="205.167" height="37.473"/>
<text transform="matrix(1 0 0 1 -5 27.0452)" fill="#FFFFFF" font-family="'SketchFlowPrint'" font-size="37">BYOUTE.IO</text>
</svg>
